<?xml version="1.0" encoding="UTF-8" standalone="no"?>
<svg
   xmlns:dc="http://purl.org/dc/elements/1.1/"
   xmlns:cc="http://creativecommons.org/ns#"
   xmlns:rdf="http://www.w3.org/1999/02/22-rdf-syntax-ns#"
   xmlns:svg="http://www.w3.org/2000/svg"
   xmlns="http://www.w3.org/2000/svg"
   xmlns:xlink="http://www.w3.org/1999/xlink"
   xmlns:sodipodi="http://sodipodi.sourceforge.net/DTD/sodipodi-0.dtd"
   xmlns:inkscape="http://www.inkscape.org/namespaces/inkscape"
   version="1.0"
   width="512"
   height="295"
   id="svg2"
   inkscape:version="0.48.4 r9939"
   sodipodi:docname="Css_box_model.svg">
  <metadata
     id="metadata82">
    <rdf:RDF>
      <cc:Work
         rdf:about="">
        <dc:format>image/svg+xml</dc:format>
        <dc:type
           rdf:resource="http://purl.org/dc/dcmitype/StillImage" />
      </cc:Work>
    </rdf:RDF>
  </metadata>
  <sodipodi:namedview
     pagecolor="#ffffff"
     bordercolor="#666666"
     borderopacity="1"
     objecttolerance="10"
     gridtolerance="10"
     guidetolerance="10"
     inkscape:pageopacity="0"
     inkscape:pageshadow="2"
     inkscape:window-width="1920"
     inkscape:window-height="1018"
     id="namedview80"
     showgrid="false"
     inkscape:zoom="1.9500679"
     inkscape:cx="175.21066"
     inkscape:cy="165.63086"
     inkscape:window-x="-8"
     inkscape:window-y="-8"
     inkscape:window-maximized="1"
     inkscape:current-layer="svg2" />
  <defs
     id="defs4">
    <marker
       refX="0"
       refY="0"
       orient="auto"
       style="overflow:visible"
       id="Arrow2Mend">
      <path
         d="M 8.7185878,4.0337352 L -2.2072895,0.016013256 L 8.7185884,-4.0017078 C 6.97309,-1.6296469 6.9831476,1.6157441 8.7185878,4.0337352 z "
         transform="scale(-0.6,-0.6)"
         style="font-size:12px;fill-rule:evenodd;stroke-width:0.625;stroke-linejoin:round"
         id="path15525" />
    </marker>
    <marker
       refX="0"
       refY="0"
       orient="auto"
       style="overflow:visible"
       id="Tail">
      <g
         transform="scale(-1.2,-1.2)"
         id="g15504">
        <path
           d="M -3.8048674,-3.9585227 L 0.54352094,0"
           style="fill:none;fill-rule:evenodd;stroke:black;stroke-width:0.80000001;stroke-linecap:round;marker-start:none;marker-end:none"
           id="path15506" />
        <path
           d="M -1.2866832,-3.9585227 L 3.0617053,0"
           style="fill:none;fill-rule:evenodd;stroke:black;stroke-width:0.80000001;stroke-linecap:round;marker-start:none;marker-end:none"
           id="path15508" />
        <path
           d="M 1.3053582,-3.9585227 L 5.6537466,0"
           style="fill:none;fill-rule:evenodd;stroke:black;stroke-width:0.80000001;stroke-linecap:round;marker-start:none;marker-end:none"
           id="path15510" />
        <path
           d="M -3.8048674,4.1775838 L 0.54352094,0.21974226"
           style="fill:none;fill-rule:evenodd;stroke:black;stroke-width:0.80000001;stroke-linecap:round;marker-start:none;marker-end:none"
           id="path15512" />
        <path
           d="M -1.2866832,4.1775838 L 3.0617053,0.21974226"
           style="fill:none;fill-rule:evenodd;stroke:black;stroke-width:0.80000001;stroke-linecap:round;marker-start:none;marker-end:none"
           id="path15514" />
        <path
           d="M 1.3053582,4.1775838 L 5.6537466,0.21974226"
           style="fill:none;fill-rule:evenodd;stroke:black;stroke-width:0.80000001;stroke-linecap:round;marker-start:none;marker-end:none"
           id="path15516" />
      </g>
    </marker>
    <marker
       refX="0"
       refY="0"
       orient="auto"
       style="overflow:visible"
       id="Arrow1Lend">
      <path
         d="M 0,0 L 5,-5 L -12.5,0 L 5,5 L 0,0 z "
         transform="matrix(-0.8,0,0,-0.8,-10,0)"
         style="fill-rule:evenodd;stroke:black;stroke-width:1pt;marker-start:none"
         id="path15549" />
    </marker>
    <marker
       refX="0"
       refY="0"
       orient="auto"
       style="overflow:visible"
       id="Arrow1Lstart">
      <path
         d="M 0,0 L 5,-5 L -12.5,0 L 5,5 L 0,0 z "
         transform="matrix(0.8,0,0,0.8,10,0)"
         style="fill-rule:evenodd;stroke:black;stroke-width:1pt;marker-start:none"
         id="path15552" />
    </marker>
    <linearGradient
       id="linearGradient13591">
      <stop
         style="stop-color:white;stop-opacity:1"
         offset="0"
         id="stop13593" />
      <stop
         style="stop-color:white;stop-opacity:0.5"
         offset="0.37037036"
         id="stop13595" />
      <stop
         style="stop-color:white;stop-opacity:0"
         offset="1"
         id="stop13597" />
    </linearGradient>
    <linearGradient
       id="linearGradient6338">
      <stop
         style="stop-color:white;stop-opacity:1"
         offset="0"
         id="stop6342" />
      <stop
         style="stop-color:white;stop-opacity:0.5"
         offset="0.37037036"
         id="stop7317" />
      <stop
         style="stop-color:white;stop-opacity:0"
         offset="1"
         id="stop6340" />
    </linearGradient>
    <pattern
       xlink:href="#pattern2786"
       id="pattern4564"
       patternTransform="translate(535.5,103.4055)" />
    <pattern
       patternUnits="userSpaceOnUse"
       width="78"
       height="72"
       patternTransform="translate(550,122)"
       id="pattern2786">
      <g
         id="g4546">
        <rect
           style="fill:black;fill-opacity:1;fill-rule:evenodd;stroke:none;stroke-width:1px;stroke-linecap:butt;stroke-linejoin:miter;stroke-opacity:1"
           id="rect2772"
           width="38"
           height="35"
           x="-85"
           y="69.594482" />
        <rect
           style="fill:white;fill-opacity:0.38888891;fill-rule:evenodd;stroke:none;stroke-width:1px;stroke-linecap:butt;stroke-linejoin:miter;stroke-opacity:1"
           id="rect2774"
           width="38"
           height="35"
           x="-46.5"
           y="70.094482" />
        <rect
           style="fill:white;fill-opacity:0.38888891;fill-rule:evenodd;stroke:none;stroke-width:1px;stroke-linecap:butt;stroke-linejoin:miter;stroke-opacity:1"
           id="rect2776"
           width="38"
           height="35"
           x="-85"
           y="105.59448" />
        <rect
           style="fill:black;fill-opacity:1;fill-rule:evenodd;stroke:none;stroke-width:1px;stroke-linecap:butt;stroke-linejoin:miter;stroke-opacity:1"
           id="rect2778"
           width="38"
           height="35"
           x="-46"
           y="105.09448" />
      </g>
    </pattern>
    <linearGradient
       x1="29.5"
       y1="167.09448"
       x2="272.5"
       y2="167.09448"
       id="linearGradient8204"
       xlink:href="#linearGradient6338"
       gradientUnits="userSpaceOnUse"
       spreadMethod="reflect" />
    <linearGradient
       x1="269"
       y1="29.594481"
       x2="272.5"
       y2="167.09448"
       id="linearGradient12704"
       xlink:href="#linearGradient13591"
       gradientUnits="userSpaceOnUse"
       gradientTransform="translate(-14.5,-18.59448)"
       spreadMethod="reflect" />
    <linearGradient
       x1="29.5"
       y1="167.09448"
       x2="272.5"
       y2="167.09448"
       id="linearGradient1985"
       xlink:href="#linearGradient6338"
       gradientUnits="userSpaceOnUse"
       gradientTransform="translate(-14.5,-18.59448)"
       spreadMethod="reflect" />
  </defs>
  <g
     id="layer2">
    <rect
       width="491"
       height="274"
       x="12.5"
       y="11.5"
       style="fill:url(#pattern4564);fill-opacity:1;fill-rule:evenodd;stroke:none;stroke-width:1;stroke-linecap:butt;stroke-linejoin:miter;stroke-miterlimit:4;stroke-dasharray:8, 8;stroke-dashoffset:0;stroke-opacity:1"
       id="rect4562" />
  </g>
  <g
     id="layer3">
    <rect
       width="491"
       height="274"
       x="12.5"
       y="11.5"
       style="fill:url(#linearGradient12704);fill-opacity:1;fill-rule:evenodd;stroke:black;stroke-width:1;stroke-linecap:butt;stroke-linejoin:miter;stroke-miterlimit:4;stroke-dasharray:8, 8;stroke-dashoffset:0;stroke-opacity:1"
       id="rect12702" />
  </g>
  <path
     d="M 12.5,11.500002 L 503.5,11.500002 L 503.5,285.5 L 12.5,285.5 L 12.5,11.500002 z "
     style="fill:url(#linearGradient1985);fill-opacity:1;fill-rule:evenodd;stroke:black;stroke-width:1;stroke-linecap:butt;stroke-linejoin:miter;stroke-miterlimit:4;stroke-dasharray:8, 8;stroke-dashoffset:0;stroke-opacity:1"
     id="rect1876" />
  <path
     d="M 48.352348,49.500002 L 459.35235,49.500002 L 459.35235,247.5 L 48.352348,247.5 L 48.352348,49.500002 z "
     style="fill:#c3ffc3;fill-opacity:0.99607843;fill-rule:evenodd;stroke:#7ecc54;stroke-width:16.29921341000000000;stroke-linecap:butt;stroke-linejoin:miter;stroke-miterlimit:4;stroke-opacity:1"
     id="rect1872" />
  <path
     d="M 91.42618,99 L 420.42618,99 L 420.42618,198 L 91.42618,198 L 91.42618,99 z "
     style="fill:#9a9a9b;fill-opacity:0.28787878;fill-rule:evenodd;stroke:none;stroke-width:0.99921262;stroke-linecap:butt;stroke-linejoin:miter;stroke-miterlimit:4;stroke-opacity:1"
     id="rect1874" />
  <path
     d="M 214.77734,34.021483 L 214.77734,19.705077 L 217.62891,19.705077 L 221.01758,29.841795 C 221.33007,30.785809 221.55793,31.492189 221.70117,31.960936 C 221.86392,31.440105 222.11783,30.675132 222.46289,29.666014 L 225.89063,19.705077 L 228.43945,19.705077 L 228.43945,34.021483 L 226.61328,34.021483 L 226.61328,22.039061 L 222.45313,34.021483 L 220.74414,34.021483 L 216.60352,21.833983 L 216.60352,34.021483 L 214.77734,34.021483 z M 238.05859,32.742186 C 237.40754,33.295572 236.78092,33.686197 236.17871,33.914061 C 235.57649,34.141926 234.93033,34.255858 234.24023,34.255858 C 233.10091,34.255858 232.22526,33.977538 231.61328,33.420897 C 231.0013,32.864258 230.69531,32.152995 230.69531,31.287108 C 230.69531,30.779299 230.81087,30.315432 231.04199,29.895506 C 231.27311,29.475589 231.57584,29.138675 231.9502,28.884764 C 232.32454,28.630863 232.74609,28.438806 233.21484,28.308592 C 233.55989,28.217452 234.08073,28.129562 234.77734,28.04492 C 236.19661,27.875656 237.24153,27.673833 237.91211,27.439452 C 237.91861,27.198573 237.92187,27.045578 237.92188,26.980467 C 237.92187,26.264329 237.75585,25.759772 237.42383,25.466795 C 236.9746,25.069669 236.30729,24.871102 235.42188,24.871092 C 234.59505,24.871102 233.9847,25.015958 233.59082,25.305663 C 233.19694,25.595385 232.9056,26.108079 232.7168,26.843749 L 230.99805,26.609374 C 231.1543,25.873705 231.41146,25.27963 231.76953,24.827147 C 232.1276,24.374683 232.64518,24.026376 233.32227,23.782225 C 233.99934,23.538095 234.78385,23.416025 235.67578,23.416014 C 236.56119,23.416025 237.28059,23.520191 237.83398,23.728514 C 238.38736,23.936858 238.79426,24.198902 239.05469,24.514647 C 239.31509,24.830411 239.49739,25.229174 239.60156,25.710936 C 239.66015,26.010423 239.68944,26.550787 239.68945,27.33203 L 239.68945,29.67578 C 239.68944,31.309897 239.72688,32.343425 239.80176,32.776366 C 239.87662,33.209309 240.02473,33.624348 240.24609,34.021483 L 238.41016,34.021483 C 238.22786,33.6569 238.11067,33.230468 238.05859,32.742186 L 238.05859,32.742186 z M 237.91211,28.816405 C 237.27408,29.076826 236.31705,29.29818 235.04102,29.480467 C 234.31836,29.584638 233.80729,29.701826 233.50781,29.83203 C 233.20833,29.962242 232.97721,30.152672 232.81445,30.403319 C 232.65169,30.653973 232.57031,30.932293 232.57031,31.23828 C 232.57031,31.707032 232.74772,32.097657 233.10254,32.410155 C 233.45735,32.722656 233.97656,32.878906 234.66016,32.878905 C 235.33723,32.878906 235.93945,32.730794 236.4668,32.434569 C 236.99413,32.138347 237.3815,31.733074 237.62891,31.218749 C 237.8177,30.821616 237.9121,30.235679 237.91211,29.460936 L 237.91211,28.816405 z M 242.4043,34.021483 L 242.4043,23.650389 L 243.98633,23.650389 L 243.98633,25.222655 C 244.38997,24.486987 244.76269,24.001962 245.10449,23.767577 C 245.44628,23.533212 245.82226,23.416025 246.23242,23.416014 C 246.82486,23.416025 247.42708,23.604827 248.03906,23.98242 L 247.43359,25.61328 C 247.0039,25.359382 246.57421,25.232429 246.14453,25.23242 C 245.76041,25.232429 245.41536,25.347989 245.10938,25.5791 C 244.80338,25.810228 244.58528,26.130866 244.45508,26.541014 C 244.25976,27.166021 244.16211,27.849614 244.16211,28.591795 L 244.16211,34.021483 L 242.4043,34.021483 z M 248.78125,34.880858 L 250.49023,35.134764 C 250.56185,35.662106 250.76041,36.046221 251.08594,36.287108 C 251.52213,36.612626 252.11783,36.775386 252.87305,36.775389 C 253.68684,36.775386 254.3151,36.612626 254.75781,36.287108 C 255.20051,35.961585 255.49999,35.505856 255.65625,34.91992 C 255.74739,34.561847 255.78971,33.809895 255.7832,32.664061 C 255.01497,33.569009 254.05794,34.021483 252.91211,34.021483 C 251.48632,34.021483 250.38281,33.507161 249.60156,32.478514 C 248.82031,31.449871 248.42969,30.216148 248.42969,28.777342 C 248.42969,27.787765 248.60872,26.87468 248.9668,26.038085 C 249.32487,25.201505 249.84407,24.555347 250.52441,24.099608 C 251.20475,23.643889 252.0039,23.416025 252.92188,23.416014 C 254.14583,23.416025 255.15494,23.910816 255.94922,24.900389 L 255.94922,23.650389 L 257.57031,23.650389 L 257.57031,32.615233 C 257.5703,34.229816 257.40591,35.374021 257.07715,36.04785 C 256.74836,36.721676 256.22753,37.253902 255.51465,37.64453 C 254.80175,38.035151 253.92447,38.230463 252.88281,38.230467 C 251.64583,38.230463 250.64648,37.952143 249.88477,37.395506 C 249.12305,36.838863 248.75521,36.000648 248.78125,34.880858 L 248.78125,34.880858 z M 250.23633,28.650389 C 250.23633,30.01107 250.50651,31.003908 251.04688,31.628905 C 251.58724,32.253907 252.26432,32.566406 253.07813,32.566405 C 253.88541,32.566406 254.56249,32.255534 255.10938,31.633788 C 255.65624,31.012046 255.92968,30.037112 255.92969,28.708983 C 255.92968,27.439458 255.6481,26.482428 255.08496,25.837889 C 254.5218,25.193367 253.84309,24.871102 253.04883,24.871092 C 252.26757,24.871102 251.60351,25.188484 251.05664,25.823241 C 250.50976,26.458014 250.23633,27.400396 250.23633,28.650389 L 250.23633,28.650389 z M 260.24609,21.726561 L 260.24609,19.705077 L 262.00391,19.705077 L 262.00391,21.726561 L 260.24609,21.726561 z M 260.24609,34.021483 L 260.24609,23.650389 L 262.00391,23.650389 L 262.00391,34.021483 L 260.24609,34.021483 z M 264.68945,34.021483 L 264.68945,23.650389 L 266.27148,23.650389 L 266.27148,25.124999 C 267.0332,23.985686 268.13346,23.416025 269.57227,23.416014 C 270.19726,23.416025 270.7718,23.528329 271.2959,23.752928 C 271.81998,23.977548 272.21223,24.272144 272.47266,24.636717 C 272.73306,25.00131 272.91536,25.434252 273.01953,25.935545 C 273.08463,26.261074 273.11718,26.830735 273.11719,27.64453 L 273.11719,34.021483 L 271.35938,34.021483 L 271.35938,27.712889 C 271.35937,26.99675 271.29101,26.461269 271.1543,26.106444 C 271.01757,25.751634 270.77506,25.468432 270.42676,25.256835 C 270.07844,25.045255 269.66992,24.939461 269.20117,24.939452 C 268.45247,24.939461 267.80631,25.177091 267.2627,25.652342 C 266.71907,26.127611 266.44726,27.029302 266.44727,28.35742 L 266.44727,34.021483 L 264.68945,34.021483 z "
     style="font-size:18px;font-style:italic;font-weight:normal;text-align:center;text-anchor:middle;fill:black;fill-opacity:1;stroke:none;stroke-width:1px;stroke-linecap:butt;stroke-linejoin:miter;stroke-opacity:1;font-family:Comic Sans MS"
     id="text2768" />
  <path
     d="M 235.46094,222.55371 L 232.9917,213.24805 L 234.25488,213.24805 L 235.67041,219.34815 C 235.82275,219.98715 235.95394,220.62191 236.06396,221.25244 C 236.30094,220.25798 236.44059,219.68458 236.48291,219.53223 L 238.25391,213.24805 L 239.73926,213.24805 L 241.07227,217.95801 C 241.40657,219.12598 241.64778,220.22413 241.7959,221.25244 C 241.91438,220.66423 242.06884,219.98926 242.25928,219.22754 L 243.71924,213.24805 L 244.95703,213.24805 L 242.40527,222.55371 L 241.21826,222.55371 L 239.25684,215.46338 C 239.09179,214.87094 238.99446,214.50701 238.96484,214.37158 C 238.86751,214.799 238.77652,215.16293 238.69189,215.46338 L 236.71777,222.55371 L 235.46094,222.55371 z M 245.95996,214.56201 L 245.95996,213.24805 L 247.10254,213.24805 L 247.10254,214.56201 L 245.95996,214.56201 z M 245.95996,222.55371 L 245.95996,215.8125 L 247.10254,215.8125 L 247.10254,222.55371 L 245.95996,222.55371 z M 253.22168,222.55371 L 253.22168,221.70313 C 252.79427,222.37175 252.16585,222.70606 251.33643,222.70606 C 250.79899,222.70606 250.30493,222.55795 249.85425,222.26172 C 249.40356,221.9655 249.05444,221.55184 248.80688,221.02075 C 248.55933,220.48967 248.43555,219.87924 248.43555,219.18946 C 248.43555,218.51661 248.54769,217.90618 248.77197,217.35816 C 248.99626,216.81015 249.33268,216.39015 249.78125,216.09815 C 250.22982,215.80616 250.73128,215.66017 251.28564,215.66016 C 251.69189,215.66017 252.05371,215.74586 252.37109,215.91724 C 252.68847,216.08863 252.94661,216.31186 253.14551,216.58692 L 253.14551,213.24805 L 254.28174,213.24805 L 254.28174,222.55371 L 253.22168,222.55371 z M 249.60986,219.18946 C 249.60986,220.05274 249.79183,220.69808 250.15576,221.12549 C 250.51969,221.5529 250.94922,221.7666 251.44434,221.7666 C 251.94368,221.7666 252.36792,221.56242 252.71704,221.15406 C 253.06616,220.74569 253.24072,220.12256 253.24072,219.28467 C 253.24072,218.36215 253.06298,217.68507 252.70752,217.25342 C 252.35205,216.82179 251.91406,216.60597 251.39355,216.60596 C 250.88574,216.60597 250.4615,216.81332 250.12085,217.22803 C 249.78019,217.64275 249.60986,218.29656 249.60986,219.18946 L 249.60986,219.18946 z M 258.5791,221.53174 L 258.74414,222.54102 C 258.42252,222.60873 258.13476,222.64258 257.88086,222.64258 C 257.46614,222.64258 257.14453,222.57699 256.91602,222.4458 C 256.6875,222.31462 256.52669,222.14217 256.43359,221.92847 C 256.34049,221.71477 256.29394,221.26514 256.29395,220.57959 L 256.29395,216.70117 L 255.45605,216.70117 L 255.45605,215.8125 L 256.29395,215.8125 L 256.29395,214.14307 L 257.43018,213.45752 L 257.43018,215.8125 L 258.5791,215.8125 L 258.5791,216.70117 L 257.43018,216.70117 L 257.43018,220.64307 C 257.43017,220.96892 257.45027,221.17839 257.49048,221.27149 C 257.53068,221.36459 257.59627,221.43864 257.68726,221.49365 C 257.77824,221.54867 257.90836,221.57618 258.07764,221.57617 C 258.20459,221.57618 258.37174,221.56136 258.5791,221.53174 L 258.5791,221.53174 z M 259.68994,222.55371 L 259.68994,213.24805 L 260.83252,213.24805 L 260.83252,216.58692 C 261.36572,215.96908 262.03857,215.66017 262.85107,215.66016 C 263.35042,215.66017 263.78417,215.75855 264.15234,215.95532 C 264.5205,216.15211 264.78393,216.424 264.94263,216.771 C 265.10131,217.11801 265.18066,217.62159 265.18066,218.28174 L 265.18066,222.55371 L 264.03809,222.55371 L 264.03809,218.28174 C 264.03808,217.71046 263.9143,217.29469 263.66675,217.03443 C 263.41918,216.77418 263.06901,216.64405 262.61621,216.64405 C 262.27767,216.64405 261.95923,216.73186 261.66089,216.90747 C 261.36255,217.0831 261.1499,217.32113 261.02295,217.62158 C 260.89599,217.92204 260.83252,218.33676 260.83252,218.86573 L 260.83252,222.55371 L 259.68994,222.55371 z "
     style="font-size:13px;font-style:italic;font-weight:normal;text-align:center;text-anchor:middle;fill:#280b0b;fill-opacity:1;stroke:none;stroke-width:1px;stroke-linecap:butt;stroke-linejoin:miter;stroke-opacity:1;font-family:Comic Sans MS"
     id="text14484" />
  <g
     transform="matrix(1.040945,0,0,1,-23.46299,-106.5945)"
     id="g15569">
    <path
       d="m 110,345.96994 0,-52.38231"
       style="fill:none;stroke:#000000;stroke-width:0.98013586px;stroke-linecap:butt;stroke-linejoin:miter;stroke-opacity:1"
       id="path14488"
       inkscape:connector-curvature="0"
       sodipodi:nodetypes="cc" />
    <path
       d="M 425.96921,296.99416 426,345.96117"
       style="fill:none;stroke:#000000;stroke-width:0.98013586px;stroke-linecap:butt;stroke-linejoin:miter;stroke-opacity:1"
       id="path14490"
       inkscape:connector-curvature="0"
       sodipodi:nodetypes="cc" />
    <path
       d="m 111.31658,331.56243 313.24434,1.03205"
       style="fill:none;stroke:#000000;stroke-width:0.98013556;stroke-linecap:butt;stroke-linejoin:miter;stroke-miterlimit:4;stroke-opacity:1;stroke-dasharray:0.98013553, 0.98013553;stroke-dashoffset:0;marker-start:url(#Arrow1Lstart);marker-mid:none;marker-end:url(#Arrow1Lend)"
       id="path14492"
       inkscape:connector-curvature="0"
       sodipodi:nodetypes="cc" />
  </g>
  <g
     transform="matrix(0,0.313833,-1,0,405.8448,63.97114)"
     id="g15574">
    <path
       d="M 110.01277,349.34322 110,301.15147"
       style="fill:none;stroke:#000000;stroke-width:1.7850517px;stroke-linecap:butt;stroke-linejoin:miter;stroke-opacity:1"
       id="path15576"
       inkscape:connector-curvature="0"
       sodipodi:nodetypes="cc" />
    <path
       d="m 426,301.96194 -0.20425,47.39654"
       style="fill:none;stroke:#000000;stroke-width:1.7850517px;stroke-linecap:butt;stroke-linejoin:miter;stroke-opacity:1"
       id="path15578"
       inkscape:connector-curvature="0"
       sodipodi:nodetypes="cc" />
    <path
       d="m 111.30533,331.59448 314.19467,1"
       style="fill:none;stroke:#000000;stroke-width:1.78505111;stroke-linecap:butt;stroke-linejoin:miter;stroke-miterlimit:4;stroke-opacity:1;stroke-dasharray:1.78505112, 1.78505112;stroke-dashoffset:0;marker-start:url(#Arrow1Lstart);marker-mid:none;marker-end:url(#Arrow1Lend)"
       id="path15580"
       inkscape:connector-curvature="0"
       sodipodi:nodetypes="cc" />
  </g>
  <path
     d="M 78.011369,129.08126 L 87.316909,129.12834 L 87.310679,130.35978 L 83.489441,130.34044 L 83.464971,135.17729 L 87.286208,135.19662 L 87.279978,136.42805 L 77.974438,136.38097 L 77.980668,135.14954 L 82.36684,135.17174 L 82.391311,130.33489 L 78.005139,130.3127 L 78.011369,129.08126 z M 80.112296,142.91726 L 79.960328,144.09717 C 79.271499,143.90748 78.737933,143.55988 78.359627,143.05439 C 77.98132,142.54888 77.794147,141.9047 77.798108,141.12184 C 77.803096,140.13585 78.110677,139.35558 78.720851,138.78102 C 79.331022,138.20646 80.184115,137.92196 81.280132,137.9275 C 82.414227,137.93324 83.292945,138.22968 83.91629,138.81682 C 84.539623,139.40397 84.848942,140.16303 84.844232,141.09401 C 84.839672,141.99536 84.529143,142.73012 83.912661,143.29831 C 83.296166,143.86648 82.431453,144.14776 81.318516,144.14212 C 81.250805,144.14178 81.149255,144.13915 81.013865,144.13423 L 81.039299,139.10696 C 80.298531,139.14553 79.730423,139.35213 79.33497,139.72676 C 78.939514,140.10139 78.740363,140.57012 78.737516,141.13294 C 78.735396,141.55187 78.843611,141.91001 79.062163,142.20735 C 79.280712,142.50467 79.630756,142.74131 80.112296,142.91726 L 80.112296,142.91726 z M 81.978418,139.17519 L 81.959374,142.9393 C 82.526677,142.89138 82.952692,142.74965 83.23742,142.51412 C 83.679354,142.15241 83.90179,141.68169 83.904729,141.10195 C 83.907378,140.57722 83.733994,140.13517 83.384577,139.77581 C 83.035148,139.41646 82.566429,139.21625 81.978418,139.17519 L 81.978418,139.17519 z M 85.919728,145.5746 L 87.233671,145.58125 L 87.22789,146.72381 L 85.913948,146.71717 L 85.919728,145.5746 z M 77.928131,145.53417 L 84.669252,145.56827 L 84.663472,146.71084 L 77.92235,146.67673 L 77.928131,145.53417 z M 77.355992,148.21002 L 77.185336,149.32001 C 76.842332,149.36482 76.592009,149.49263 76.434363,149.70343 C 76.221345,149.98588 76.113593,150.37254 76.111108,150.86342 C 76.108434,151.39239 76.21216,151.80128 76.422289,152.09011 C 76.63242,152.37893 76.927655,152.57509 77.307995,152.67858 C 77.540439,152.739 78.029062,152.76898 78.773866,152.76852 C 78.188184,152.2662 77.897227,151.64265 77.900995,150.89787 C 77.905684,149.97112 78.243617,149.25554 78.914797,148.75112 C 79.585976,148.24669 80.38917,147.99685 81.324382,148.00158 C 81.967598,148.00484 82.560507,148.12421 83.103109,148.35971 C 83.645702,148.59519 84.063991,148.9348 84.35798,149.37852 C 84.651953,149.82223 84.797443,150.34242 84.794424,150.9391 C 84.790399,151.73465 84.465466,152.38894 83.819641,152.90196 L 84.632129,152.90607 L 84.626798,153.95977 L 78.799727,153.93028 C 77.750262,153.92498 77.00708,153.81435 76.570178,153.59845 C 76.133278,153.38253 75.789048,153.04223 75.537487,152.57758 C 75.285931,152.11293 75.161864,151.54206 75.165288,150.86499 C 75.169358,150.06096 75.35355,149.4123 75.717864,148.91903 C 76.082182,148.42575 76.628224,148.18941 77.355992,148.21002 L 77.355992,148.21002 z M 81.400959,149.17629 C 80.516528,149.17182 79.870303,149.34417 79.462283,149.69335 C 79.054261,150.04252 78.848913,150.4816 78.846238,151.01056 C 78.843582,151.5353 79.043419,151.97641 79.445751,152.33392 C 79.84808,152.69143 80.480879,152.87237 81.344151,152.87674 C 82.169331,152.88091 82.792319,152.70104 83.213116,152.33711 C 83.633901,151.97319 83.845603,151.53309 83.848221,151.01683 C 83.850784,150.50902 83.646672,150.07634 83.235883,149.71879 C 82.825085,149.36124 82.213444,149.18041 81.400959,149.17629 L 81.400959,149.17629 z M 77.87691,155.65855 L 87.18245,155.70563 L 87.17667,156.84819 L 83.837848,156.8313 C 84.452973,157.36762 84.758489,158.04202 84.754379,158.85451 C 84.751853,159.35386 84.65127,159.7871 84.452636,160.15427 C 84.253992,160.52143 83.980772,160.78348 83.632975,160.94043 C 83.285166,161.09735 82.781191,161.17415 82.121048,161.17081 L 77.849132,161.1492 L 77.854912,160.00663 L 82.126829,160.02824 C 82.698105,160.03113 83.114497,159.90946 83.376005,159.66323 C 83.637502,159.41698 83.769399,159.06747 83.771696,158.61468 C 83.773403,158.27614 83.687206,157.95725 83.513104,157.65804 C 83.338992,157.35881 83.102034,157.14496 82.80223,157.01649 C 82.502415,156.88801 82.088029,156.82245 81.559069,156.81977 L 77.87113,156.80111 L 77.87691,155.65855 z M 78.849639,165.39455 L 77.83954,165.55447 C 77.77346,165.23253 77.741062,164.9446 77.742347,164.69069 C 77.744445,164.27599 77.811663,163.9547 77.944002,163.72686 C 78.076342,163.49901 78.249597,163.33908 78.46377,163.24706 C 78.677943,163.15505 79.127797,163.11077 79.813336,163.11424 L 83.691703,163.13386 L 83.695942,162.29598 L 84.584601,162.30048 L 84.580362,163.13836 L 86.249773,163.1468 L 86.929565,164.28649 L 84.574614,164.27457 L 84.568802,165.42349 L 83.680142,165.41899 L 83.685955,164.27008 L 79.744112,164.25013 C 79.418268,164.24848 79.208697,164.26752 79.115397,164.30725 C 79.022095,164.34698 78.947708,164.4122 78.892236,164.50291 C 78.836763,164.59361 78.808599,164.7236 78.807743,164.89286 C 78.8071,165.01981 78.821065,165.18704 78.849639,165.39455 L 78.849639,165.39455 z "
     style="font-size:12.99999714px;font-style:italic;font-weight:normal;text-align:center;text-anchor:middle;fill:#280b0b;fill-opacity:1;stroke:none;stroke-width:1px;stroke-linecap:butt;stroke-linejoin:miter;stroke-opacity:1;font-family:Comic Sans MS"
     id="text15582" />
  <path
     d="m 210.33267,84.130529 0,-14.316406 5.40039,0 c 0.95051,1.4e-5 1.67642,0.04559 2.17773,0.136719 0.70312,0.117201 1.29231,0.340183 1.76758,0.668945 0.47525,0.328789 0.85774,0.789401 1.14746,1.381836 0.2897,0.59246 0.43456,1.243501 0.43457,1.953125 -1e-5,1.217457 -0.38738,2.247729 -1.16211,3.09082 -0.77475,0.843106 -2.17448,1.264655 -4.19921,1.264649 l -3.67188,0 0,5.820312 -1.89453,0 z m 1.89453,-7.509765 3.70117,0 c 1.22395,7e-6 2.09309,-0.227857 2.60742,-0.683594 0.51432,-0.455721 0.77148,-1.096996 0.77149,-1.923828 -1e-5,-0.598948 -0.15138,-1.111643 -0.4541,-1.538086 -0.30275,-0.42642 -0.70151,-0.707996 -1.19629,-0.844727 -0.31902,-0.08462 -0.90821,-0.12694 -1.76758,-0.126953 l -3.66211,0 0,5.117188 z m 18.00781,6.230468 c -0.65105,0.553387 -1.27767,0.944011 -1.87988,1.171875 -0.60222,0.227865 -1.24838,0.341797 -1.93848,0.341797 -1.13932,0 -2.01497,-0.27832 -2.62695,-0.834961 -0.61198,-0.556639 -0.91797,-1.267901 -0.91797,-2.133789 0,-0.507809 0.11556,-0.971676 0.34668,-1.391601 0.23112,-0.419918 0.53385,-0.756831 0.9082,-1.010742 0.37435,-0.253901 0.7959,-0.445958 1.26465,-0.576172 0.34505,-0.09114 0.86588,-0.179031 1.5625,-0.263672 1.41927,-0.169265 2.46419,-0.371088 3.13477,-0.605469 0.007,-0.240878 0.01,-0.393873 0.01,-0.458984 0,-0.716138 -0.16602,-1.220695 -0.49804,-1.513672 -0.44923,-0.397127 -1.11655,-0.595694 -2.00196,-0.595703 -0.82682,9e-6 -1.43717,0.144866 -1.83105,0.43457 -0.39388,0.289722 -0.68522,0.802417 -0.87402,1.538086 l -1.71875,-0.234375 c 0.15625,-0.735669 0.41341,-1.329744 0.77148,-1.782227 0.35807,-0.452464 0.87565,-0.800771 1.55274,-1.044921 0.67707,-0.244131 1.46158,-0.366201 2.35351,-0.366211 0.88541,1e-5 1.60481,0.104177 2.1582,0.3125 0.55338,0.208343 0.96028,0.470387 1.22071,0.786132 0.2604,0.315765 0.4427,0.714527 0.54687,1.196289 0.0586,0.299488 0.0879,0.839852 0.0879,1.621094 l 0,2.34375 c -1e-5,1.634118 0.0374,2.667645 0.11231,3.100586 0.0749,0.432944 0.22297,0.847982 0.44433,1.245117 l -1.83593,0 c -0.1823,-0.364583 -0.29949,-0.791014 -0.35157,-1.279297 l 0,0 z m -0.14648,-3.925781 c -0.63803,0.260422 -1.59506,0.481776 -2.87109,0.664063 -0.72267,0.104171 -1.23373,0.221358 -1.53321,0.351562 -0.29948,0.130213 -0.5306,0.320642 -0.69336,0.571289 -0.16276,0.250655 -0.24414,0.528975 -0.24414,0.834961 0,0.468753 0.17741,0.859377 0.53223,1.171875 0.35481,0.312502 0.87402,0.468751 1.55762,0.46875 0.67707,1e-6 1.27929,-0.14811 1.80664,-0.444336 0.52733,-0.296222 0.9147,-0.701495 1.16211,-1.21582 0.18879,-0.397132 0.28319,-0.983069 0.2832,-1.757813 l 0,-0.644531 z m 11.24023,5.205078 0,-1.308593 c -0.65756,1.028646 -1.62435,1.542968 -2.90039,1.542968 -0.82682,0 -1.58692,-0.227864 -2.28027,-0.683593 -0.69336,-0.455729 -1.23047,-1.092121 -1.61133,-1.90918 -0.38086,-0.817054 -0.57129,-1.756181 -0.57129,-2.817383 0,-1.03515 0.17253,-1.974277 0.51758,-2.817383 0.34505,-0.84309 0.86263,-1.489248 1.55273,-1.938476 0.69011,-0.449209 1.46159,-0.673818 2.31446,-0.673828 0.62499,1e-5 1.18163,0.131846 1.66992,0.395507 0.48827,0.263682 0.88541,0.607106 1.19141,1.030274 l 0,-5.136719 1.74804,0 0,14.316406 -1.63086,0 z m -5.55664,-5.175781 c 0,1.328129 0.27995,2.320967 0.83985,2.978516 0.55989,0.657553 1.22069,0.986329 1.98242,0.986328 0.76822,1e-6 1.42089,-0.314126 1.95801,-0.942383 0.5371,-0.628252 0.80565,-1.58691 0.80566,-2.875977 -1e-5,-1.419264 -0.27345,-2.46093 -0.82031,-3.125 -0.54688,-0.664053 -1.22071,-0.996084 -2.02149,-0.996093 -0.78125,9e-6 -1.43392,0.319019 -1.958,0.957031 -0.5241,0.638028 -0.78614,1.643887 -0.78614,3.017578 l 0,0 z m 16.68946,5.175781 0,-1.308593 c -0.65756,1.028646 -1.62436,1.542968 -2.90039,1.542968 -0.82683,0 -1.58692,-0.227864 -2.28028,-0.683593 -0.69336,-0.455729 -1.23047,-1.092121 -1.61133,-1.90918 -0.38086,-0.817054 -0.57129,-1.756181 -0.57129,-2.817383 0,-1.03515 0.17253,-1.974277 0.51758,-2.817383 0.34505,-0.84309 0.86263,-1.489248 1.55274,-1.938476 0.6901,-0.449209 1.46158,-0.673818 2.31445,-0.673828 0.62499,1e-5 1.18163,0.131846 1.66992,0.395507 0.48828,0.263682 0.88541,0.607106 1.19141,1.030274 l 0,-5.136719 1.74805,0 0,14.316406 -1.63086,0 z m -5.55664,-5.175781 c -1e-5,1.328129 0.27994,2.320967 0.83984,2.978516 0.55989,0.657553 1.2207,0.986329 1.98242,0.986328 0.76822,1e-6 1.42089,-0.314126 1.95801,-0.942383 0.5371,-0.628252 0.80565,-1.58691 0.80566,-2.875977 -1e-5,-1.419264 -0.27344,-2.46093 -0.82031,-3.125 -0.54688,-0.664053 -1.22071,-0.996084 -2.02148,-0.996093 -0.78126,9e-6 -1.43393,0.319019 -1.95801,0.957031 -0.52409,0.638028 -0.78614,1.643887 -0.78613,3.017578 l 0,0 z m 9.9707,-7.119141 0,-2.021484 1.75781,0 0,2.021484 -1.75781,0 z m 0,12.294922 0,-10.371093 1.75781,0 0,10.371093 -1.75781,0 z m 4.44336,0 0,-10.371093 1.58203,0 0,1.474609 c 0.76171,-1.139313 1.86197,-1.708974 3.30078,-1.708984 0.62499,1e-5 1.19954,0.112315 1.72363,0.336914 0.52408,0.224619 0.91634,0.519215 1.17676,0.883789 0.26041,0.364592 0.4427,0.797534 0.54688,1.298828 0.0651,0.325528 0.0976,0.895189 0.0977,1.708984 l 0,6.376953 -1.75781,0 0,-6.308593 c -10e-6,-0.716139 -0.0684,-1.25162 -0.20508,-1.606446 -0.13673,-0.354809 -0.37924,-0.638012 -0.72754,-0.849609 -0.34831,-0.21158 -0.75684,-0.317374 -1.22558,-0.317383 -0.74871,9e-6 -1.39486,0.237639 -1.93848,0.712891 -0.54362,0.475268 -0.81543,1.37696 -0.81543,2.705078 l 0,5.664062 -1.75781,0 z m 10.81054,0.859377 1.70899,0.2539 c 0.0716,0.52735 0.27018,0.91146 0.5957,1.15235 0.4362,0.32552 1.0319,0.48828 1.78711,0.48828 0.8138,0 1.44205,-0.16276 1.88477,-0.48828 0.4427,-0.32552 0.74218,-0.78125 0.89843,-1.36719 0.0911,-0.35807 0.13346,-1.110025 0.12696,-2.255859 -0.76824,0.904949 -1.72527,1.357422 -2.8711,1.357422 -1.42578,0 -2.5293,-0.514322 -3.31054,-1.542968 -0.78125,-1.028644 -1.17188,-2.262366 -1.17188,-3.701172 0,-0.989577 0.17904,-1.902662 0.53711,-2.739258 0.35807,-0.83658 0.87728,-1.482738 1.55762,-1.938477 0.68033,-0.455718 1.47949,-0.683583 2.39746,-0.683593 1.22395,1e-5 2.23306,0.494801 3.02734,1.484375 l 0,-1.25 1.6211,0 0,8.964843 c -10e-6,1.614583 -0.1644,2.758787 -0.49317,3.432617 -0.32878,0.67383 -0.84962,1.20605 -1.5625,1.59668 -0.71289,0.39062 -1.59017,0.58593 -2.63183,0.58594 -1.23699,-1e-5 -2.23633,-0.27833 -2.99805,-0.83496 -0.76172,-0.55665 -1.12956,-1.39486 -1.10352,-2.51465 l 0,0 z m 1.45508,-6.23047 c 0,1.360681 0.27018,2.353518 0.81055,2.978515 0.54036,0.625002 1.21744,0.937502 2.03125,0.9375 0.80728,2e-6 1.48437,-0.31087 2.03125,-0.932617 0.54687,-0.621742 0.8203,-1.596676 0.82031,-2.924805 -1e-5,-1.269524 -0.28158,-2.226555 -0.84472,-2.871093 -0.56316,-0.644523 -1.24187,-0.966788 -2.03614,-0.966797 -0.78125,9e-6 -1.44531,0.317391 -1.99218,0.952148 -0.54688,0.634773 -0.82032,1.577155 -0.82032,2.827149 l 0,0 z"
     style="font-size:18px;font-style:italic;font-weight:normal;text-align:center;text-anchor:middle;fill:#000000;fill-opacity:1;stroke:none;font-family:Comic Sans MS"
     id="text15586"
     inkscape:connector-curvature="0" />
  <path
     d="m 220.13631,55.089272 0,-11.364735 4.27692,0 c 0.87094,1.2e-5 1.5695,0.115003 2.0957,0.344973 0.52619,0.229993 0.93832,0.58401 1.23643,1.062052 0.29808,0.478063 0.44712,0.97808 0.44713,1.500052 -1e-5,0.485813 -0.13221,0.943193 -0.3966,1.372141 -0.2644,0.428961 -0.66357,0.775226 -1.19753,1.038795 0.68948,0.201563 1.21956,0.545244 1.59024,1.031044 0.37065,0.48581 0.55599,1.059472 0.556,1.720989 -1e-5,0.532322 -0.11276,1.02717 -0.33826,1.484548 -0.22553,0.457381 -0.50417,0.810106 -0.83596,1.058176 -0.33179,0.248071 -0.74781,0.435416 -1.24808,0.562035 -0.50028,0.12662 -1.11331,0.18993 -1.83908,0.18993 l -4.34691,0 z m 1.50858,-6.589377 2.46507,0 c 0.66876,7e-6 1.14829,-0.04392 1.43861,-0.131786 0.38362,-0.113692 0.67263,-0.302329 0.86705,-0.565911 0.1944,-0.263568 0.2916,-0.594329 0.29161,-0.992283 -1e-5,-0.377266 -0.0907,-0.709317 -0.27217,-0.996158 -0.18145,-0.286822 -0.44066,-0.483211 -0.77762,-0.589168 -0.33698,-0.105937 -0.91502,-0.15891 -1.73411,-0.15892 l -2.27844,0 0,3.434226 z m 0,5.248244 2.83833,0 c 0.4873,2e-6 0.82946,-0.01809 1.02647,-0.05427 0.34732,-0.06202 0.63764,-0.165379 0.87093,-0.310089 0.23329,-0.144706 0.42509,-0.355307 0.57544,-0.631804 0.15034,-0.276493 0.2255,-0.595625 0.22551,-0.957398 -1e-5,-0.423783 -0.10886,-0.792013 -0.32659,-1.104689 -0.21775,-0.312667 -0.51973,-0.532313 -0.90594,-0.658937 -0.38622,-0.126614 -0.94222,-0.189924 -1.668,-0.189929 l -2.63615,0 0,3.907111 z m 8.49165,-2.77529 c 0,-1.524594 0.4251,-2.653831 1.27531,-3.387713 0.71022,-0.609833 1.57598,-0.914753 2.59726,-0.914761 1.13533,8e-6 2.06329,0.370822 2.7839,1.112442 0.72058,0.741634 1.08088,1.766216 1.08089,3.073749 -1e-5,1.059472 -0.15942,1.892834 -0.47824,2.500087 -0.31883,0.607257 -0.78281,1.078849 -1.39194,1.414778 -0.60914,0.335929 -1.27401,0.503892 -1.99461,0.503893 -1.15607,-10e-7 -2.09051,-0.369521 -2.80333,-1.108565 -0.71283,-0.739043 -1.06924,-1.803677 -1.06924,-3.19391 l 0,0 z m 1.43861,0 c 0,1.054304 0.2307,1.843736 0.69209,2.368299 0.46138,0.524568 1.04201,0.78685 1.74187,0.78685 0.69468,0 1.27271,-0.263574 1.7341,-0.790726 0.46139,-0.527147 0.69208,-1.330792 0.69209,-2.410936 -1e-5,-1.018117 -0.232,-1.789461 -0.69598,-2.314034 -0.46399,-0.524558 -1.04072,-0.786841 -1.73021,-0.786848 -0.69986,7e-6 -1.28049,0.260998 -1.74187,0.782972 -0.46139,0.521988 -0.69209,1.310129 -0.69209,2.364423 l 0,0 z m 7.93176,4.116423 0,-8.232844 1.25975,0 0,1.248106 c 0.32141,-0.583992 0.61821,-0.969018 0.89038,-1.155079 0.27216,-0.186045 0.57155,-0.279072 0.89815,-0.27908 0.47176,8e-6 0.95129,0.149884 1.43861,0.449628 l -0.48213,1.294619 c -0.34216,-0.20155 -0.68431,-0.302329 -1.02646,-0.302336 -0.30587,7e-6 -0.58063,0.09174 -0.82428,0.275203 -0.24366,0.183475 -0.41733,0.438005 -0.52101,0.763592 -0.15553,0.496147 -0.23329,1.038801 -0.23329,1.627963 l 0,4.310228 -1.39972,0 z m 10.69232,0 0,-1.038797 c -0.5236,0.816567 -1.29345,1.224848 -2.30954,1.224849 -0.65839,-10e-7 -1.26363,-0.180884 -1.81575,-0.542654 -0.55211,-0.361769 -0.9798,-0.866954 -1.28307,-1.515557 -0.30328,-0.648598 -0.45492,-1.394101 -0.45492,-2.236512 0,-0.821728 0.13739,-1.567231 0.41214,-2.236511 0.27477,-0.669266 0.6869,-1.182203 1.23642,-1.538813 0.54952,-0.356593 1.16384,-0.534894 1.84297,-0.534902 0.49767,8e-6 0.94092,0.104663 1.32974,0.313964 0.3888,0.209318 0.70504,0.481937 0.9487,0.817859 l 0,-4.077661 1.39195,0 0,11.364735 -1.29864,0 z m -4.42467,-4.108671 c 0,1.054304 0.22291,1.842445 0.66875,2.364423 0.44583,0.521984 0.97203,0.782974 1.57858,0.782974 0.61172,0 1.13144,-0.249362 1.55914,-0.748089 0.42768,-0.498723 0.64153,-1.25973 0.64154,-2.283024 -1e-5,-1.126649 -0.21775,-1.95355 -0.65321,-2.480706 -0.43547,-0.527143 -0.97203,-0.790718 -1.60968,-0.790725 -0.6221,7e-6 -1.14182,0.253246 -1.55913,0.759716 -0.41733,0.506483 -0.62599,1.30496 -0.62599,2.395431 l 0,0 z m 13.58508,1.457416 1.44638,0.178301 c -0.22811,0.842407 -0.65062,1.496176 -1.26752,1.961308 -0.61693,0.465132 -1.40492,0.697697 -2.36398,0.697698 -1.20792,-10e-7 -2.16569,-0.370813 -2.87332,-1.112442 -0.70764,-0.741626 -1.06145,-1.781712 -1.06145,-3.120263 0,-1.385055 0.3577,-2.460027 1.07311,-3.224917 0.71541,-0.764877 1.64338,-1.147319 2.7839,-1.147327 1.10422,8e-6 2.00626,0.374698 2.70613,1.12407 0.69985,0.749386 1.04978,1.803686 1.04979,3.1629 -1e-5,0.08269 -0.003,0.206729 -0.008,0.372106 l -6.15879,0 c 0.0518,0.904427 0.30846,1.596956 0.76985,2.077591 0.46139,0.480638 1.03683,0.720956 1.72632,0.720956 0.51324,0 0.95129,-0.134371 1.31419,-0.403115 0.36289,-0.268742 0.6506,-0.697697 0.86316,-1.286866 l 0,0 z m -4.59576,-2.255892 4.61131,0 c -0.0622,-0.692525 -0.23847,-1.211923 -0.52878,-1.558194 -0.44584,-0.537479 -1.02388,-0.806222 -1.73411,-0.806229 -0.64283,7e-6 -1.18328,0.214485 -1.62133,0.643432 -0.43807,0.428962 -0.68043,1.002625 -0.72709,1.720991 l 0,0 z m 7.79179,4.907147 0,-8.232844 1.25975,0 0,1.248106 c 0.32142,-0.583992 0.61822,-0.969018 0.89039,-1.155079 0.27216,-0.186045 0.57154,-0.279072 0.89815,-0.27908 0.47176,8e-6 0.95129,0.149884 1.4386,0.449628 l -0.48212,1.294619 c -0.34216,-0.20155 -0.68431,-0.302329 -1.02647,-0.302336 -0.30586,7e-6 -0.58063,0.09174 -0.82428,0.275203 -0.24365,0.183475 -0.41732,0.438005 -0.521,0.763592 -0.15553,0.496147 -0.23329,1.038801 -0.23329,1.627963 l 0,4.310228 -1.39973,0 z"
     style="font-size:14.31099032999999900px;font-style:italic;font-weight:normal;text-align:center;text-anchor:middle;fill:#000000;fill-opacity:1;stroke:none;font-family:Comic Sans MS"
     id="text15590"
     inkscape:connector-curvature="0" />
  <text
     xml:space="preserve"
     style="font-size:20px;font-style:normal;font-weight:normal;line-height:125%;letter-spacing:0px;word-spacing:0px;fill:#000000;fill-opacity:1;stroke:none;font-family:Sans"
     x="206.14668"
     y="158.5945"
     id="text3059"
     sodipodi:linespacing="125%"><tspan
       sodipodi:role="line"
       id="tspan3061"
       x="206.14668"
       y="158.5945"
       style="font-size:28px">Inhoud</tspan></text>
</svg>
