<?xml version="1.0" encoding="utf-8"?>
<!-- Generator: Adobe Illustrator 16.0.3, SVG Export Plug-In . SVG Version: 6.00 Build 0)  -->
<!DOCTYPE svg PUBLIC "-//W3C//DTD SVG 1.1//EN" "http://www.w3.org/Graphics/SVG/1.1/DTD/svg11.dtd">
<svg version="1.1"
	 id="svg2" xmlns:dc="http://purl.org/dc/elements/1.1/" xmlns:cc="http://creativecommons.org/ns#" xmlns:rdf="http://www.w3.org/1999/02/22-rdf-syntax-ns#" xmlns:svg="http://www.w3.org/2000/svg" xmlns:sodipodi="http://sodipodi.sourceforge.net/DTD/sodipodi-0.dtd" xmlns:inkscape="http://www.inkscape.org/namespaces/inkscape" sodipodi:docname="dom.svg" inkscape:version="0.48.4 r9939"
	 xmlns="http://www.w3.org/2000/svg" xmlns:xlink="http://www.w3.org/1999/xlink" x="0px" y="0px" width="595.275px"
	 height="610.445px" viewBox="0 0 595.275 610.445" enable-background="new 0 0 595.275 610.445" xml:space="preserve">
<sodipodi:namedview  showgrid="false" inkscape:cy="611.57784" inkscape:cx="398.99056" inkscape:zoom="0.7" borderopacity="1.0" bordercolor="#666666" pagecolor="#ffffff" id="base" inkscape:window-maximized="0" inkscape:window-y="60" inkscape:current-layer="layer1" inkscape:document-units="px" inkscape:pageopacity="0.0" inkscape:window-x="84" inkscape:window-height="878" inkscape:window-width="1635" inkscape:pageshadow="2">
	</sodipodi:namedview>
<rect id="rect3761" x="221.646" y="36.149" fill="none" stroke="#000000" stroke-width="2" width="162.159" height="54.58"/>
<rect id="rect3763" x="222.437" y="133.444" fill="none" stroke="#000000" stroke-width="2" width="161.368" height="55.372"/>
<rect id="rect3765" x="92.709" y="251.306" fill="none" stroke="#000000" stroke-width="2" width="171.652" height="55.372"/>
<rect id="rect3767" x="285.719" y="251.306" fill="none" stroke="#000000" stroke-width="2" width="196.964" height="55.372"/>
<rect id="rect3769" x="26.264" y="337.528" fill="none" stroke="#000000" stroke-width="2" width="163.741" height="41.923"/>
<rect id="rect3771" x="330.807" y="332.782" fill="none" stroke="#000000" stroke-width="2" width="168.487" height="43.507"/>
<rect id="rect3773" x="330.016" y="387.361" fill="none" stroke="#000000" stroke-width="2" width="170.069" height="38.76"/>
<rect id="rect3775" x="331.598" y="437.988" fill="none" stroke="#000000" stroke-width="2" width="167.696" height="44.297"/>
<rect id="rect3777" x="331.598" y="490.195" fill="none" stroke="#000000" stroke-width="2" width="167.696" height="41.133"/>
<rect id="rect3779" x="371.15" y="547.148" fill="none" stroke="#000000" stroke-width="2" width="186.68" height="44.297"/>
<text transform="matrix(1 0 0 1 249.3655 74.9082)" font-family="'MyriadPro-Regular'" font-size="31.3228">window</text>
<text transform="matrix(1 0 0 1 233.6638 172.9946)" font-family="'MyriadPro-Regular'" font-size="31.3228">document</text>
<text transform="matrix(1 0 0 1 139.3801 289.2744)" font-family="'MyriadPro-Regular'" font-size="31.3228">head</text>
<text transform="matrix(1 0 0 1 345.553 289.2744)" font-family="'MyriadPro-Regular'" font-size="31.3228">body</text>
<text transform="matrix(1 0 0 1 80.0427 370.75)" font-family="'MyriadPro-Regular'" font-size="31.3228">title</text>
<text transform="matrix(1 0 0 1 396.5881 366.0039)" font-family="'MyriadPro-Regular'" font-size="31.3228">h1</text>
<text transform="matrix(1 0 0 1 405.5881 415.0469)" font-family="'MyriadPro-Regular'" font-size="31.3228">p</text>
<text transform="matrix(1 0 0 1 405.5881 468.0454)" font-family="'MyriadPro-Regular'" font-size="31.3228">p</text>
<text transform="matrix(1 0 0 1 396.5881 520.2524)" font-family="'MyriadPro-Regular'" font-size="31.3228">div</text>
<text transform="matrix(1 0 0 1 458.4895 579.5786)" font-family="'MyriadPro-Regular'" font-size="31.3228">a</text>
<path id="path3821" inkscape:connector-curvature="0" fill="none" stroke="#000000" stroke-width="2" d="M299.957,91.52v42.715"/>
<path id="path3823" inkscape:connector-curvature="0" fill="none" stroke="#000000" stroke-width="2" d="M173.394,251.306
	l127.354-61.699l80.685,61.699"/>
<path id="path3825" inkscape:connector-curvature="0" fill="none" stroke="#000000" stroke-width="2" d="M167.066,306.678
	l-55.372,30.85"/>
<path id="path3827" inkscape:connector-curvature="0" fill="none" stroke="#000000" stroke-width="2" d="M302.33,305.887v205.664
	h28.477"/>
<path id="path3829" inkscape:connector-curvature="0" fill="none" stroke="#000000" stroke-width="2" d="M302.33,352.558h28.477"/>
<path id="path3831" inkscape:connector-curvature="0" fill="none" stroke="#000000" stroke-width="2" d="M303.12,405.556h26.104"/>
<path id="path3833" inkscape:connector-curvature="0" fill="none" stroke="#000000" stroke-width="2" d="M301.539,460.927h29.268"/>
<path id="path3835" inkscape:connector-curvature="0" fill="none" stroke="#000000" stroke-width="2" d="M349.791,531.328v37.97
	h21.357"/>
</svg>
